<svg width="216" height="87" viewBox="0 0 216 87" fill="none" xmlns="http://www.w3.org/2000/svg">
<g filter="url(#filter0_f_78_713)">
<path d="M34.8 61.64C31.344 61.64 28.1013 61 25.072 59.72C22.0853 58.3973 19.4613 56.584 17.2 54.28C14.9813 51.9333 13.232 49.2027 11.952 46.088C10.7147 42.9733 10.096 39.6027 10.096 35.976C10.096 32.392 10.7147 29.064 11.952 25.992C13.232 22.8773 14.9813 20.168 17.2 17.864C19.4613 15.5173 22.0853 13.6827 25.072 12.36C28.0587 11.0373 31.3013 10.376 34.8 10.376C38.0853 10.376 40.9013 10.8027 43.248 11.656C45.6373 12.5093 48.0267 13.9173 50.416 15.88C50.7573 16.136 51.0133 16.4133 51.184 16.712C51.3973 16.968 51.5253 17.2453 51.568 17.544C51.6533 17.8 51.696 18.12 51.696 18.504C51.696 19.3147 51.3973 19.9973 50.8 20.552C50.2453 21.064 49.5627 21.3627 48.752 21.448C47.9413 21.4907 47.152 21.2133 46.384 20.616C44.8053 19.2507 43.1627 18.2053 41.456 17.48C39.792 16.7547 37.5733 16.392 34.8 16.392C32.2827 16.392 29.9147 16.904 27.696 17.928C25.4773 18.952 23.5147 20.36 21.808 22.152C20.144 23.944 18.8427 26.0347 17.904 28.424C16.9653 30.7707 16.496 33.288 16.496 35.976C16.496 38.7067 16.9653 41.2667 17.904 43.656C18.8427 46.0027 20.144 48.072 21.808 49.864C23.5147 51.656 25.4773 53.064 27.696 54.088C29.9147 55.0693 32.2827 55.56 34.8 55.56C36.976 55.56 39.024 55.1973 40.944 54.472C42.9067 53.704 44.784 52.6587 46.576 51.336C47.344 50.7813 48.0907 50.5467 48.816 50.632C49.584 50.6747 50.224 50.9733 50.736 51.528C51.248 52.04 51.504 52.7653 51.504 53.704C51.504 54.1307 51.4187 54.5573 51.248 54.984C51.0773 55.368 50.8213 55.7307 50.48 56.072C48.176 57.9067 45.7013 59.2933 43.056 60.232C40.4533 61.1707 37.7013 61.64 34.8 61.64ZM67.782 76.36C67.3553 76.36 66.8433 76.232 66.246 75.976C64.3687 75.1227 63.8567 73.7787 64.71 71.944L84.23 27.848C85.0833 26.056 86.4273 25.544 88.262 26.312C90.182 27.1227 90.7153 28.4667 89.862 30.344L70.278 74.376C69.766 75.6987 68.934 76.36 67.782 76.36ZM75.334 59.592C74.5233 59.9333 73.7553 59.976 73.03 59.72C72.3473 59.4213 71.7927 58.8667 71.366 58.056L56.71 30.216C56.2833 29.4053 56.2193 28.6373 56.518 27.912C56.8593 27.144 57.4353 26.5893 58.246 26.248C59.0567 25.9067 59.8247 25.8853 60.55 26.184C61.2753 26.44 61.83 26.9733 62.214 27.784L76.23 55.624C76.6567 56.4347 76.806 57.224 76.678 57.992C76.5927 58.7173 76.1447 59.2507 75.334 59.592ZM113.61 61.256C110.282 61.256 107.295 60.488 104.65 58.952C102.005 57.3733 99.914 55.24 98.378 52.552C96.842 49.864 96.0527 46.8347 96.01 43.464V14.28C96.01 13.2987 96.3087 12.5093 96.906 11.912C97.546 11.3147 98.3353 11.016 99.274 11.016C100.255 11.016 101.045 11.3147 101.642 11.912C102.239 12.5093 102.538 13.2987 102.538 14.28V31.56C104.031 29.768 105.823 28.36 107.914 27.336C110.047 26.2693 112.373 25.736 114.89 25.736C118.005 25.736 120.799 26.5253 123.274 28.104C125.749 29.64 127.69 31.752 129.098 34.44C130.549 37.0853 131.274 40.0933 131.274 43.464C131.274 46.8347 130.485 49.864 128.906 52.552C127.37 55.24 125.279 57.3733 122.634 58.952C119.989 60.488 116.981 61.256 113.61 61.256ZM113.61 55.496C115.786 55.496 117.727 54.984 119.434 53.96C121.141 52.8933 122.485 51.4427 123.466 49.608C124.49 47.7733 125.002 45.7253 125.002 43.464C125.002 41.16 124.49 39.112 123.466 37.32C122.485 35.528 121.141 34.12 119.434 33.096C117.727 32.0293 115.786 31.496 113.61 31.496C111.477 31.496 109.535 32.0293 107.786 33.096C106.079 34.12 104.735 35.528 103.754 37.32C102.773 39.112 102.282 41.16 102.282 43.464C102.282 45.7253 102.773 47.7733 103.754 49.608C104.735 51.4427 106.079 52.8933 107.786 53.96C109.535 54.984 111.477 55.496 113.61 55.496ZM157.458 61.256C153.917 61.256 150.759 60.5093 147.986 59.016C145.255 57.48 143.101 55.3893 141.522 52.744C139.986 50.056 139.218 46.984 139.218 43.528C139.218 40.0293 139.943 36.9573 141.394 34.312C142.887 31.624 144.935 29.5333 147.538 28.04C150.141 26.504 153.127 25.736 156.498 25.736C159.826 25.736 162.685 26.4827 165.074 27.976C167.463 29.4267 169.277 31.4533 170.514 34.056C171.794 36.616 172.434 39.5813 172.434 42.952C172.434 43.7627 172.157 44.4453 171.602 45C171.047 45.512 170.343 45.768 169.49 45.768H143.698V40.648H169.298L166.674 42.44C166.631 40.3067 166.205 38.408 165.394 36.744C164.583 35.0373 163.431 33.6933 161.938 32.712C160.445 31.7307 158.631 31.24 156.498 31.24C154.066 31.24 151.975 31.7733 150.226 32.84C148.519 33.9067 147.218 35.3787 146.322 37.256C145.426 39.0907 144.978 41.1813 144.978 43.528C144.978 45.8747 145.511 47.9653 146.578 49.8C147.645 51.6347 149.117 53.0853 150.994 54.152C152.871 55.2187 155.026 55.752 157.458 55.752C158.781 55.752 160.125 55.5173 161.49 55.048C162.898 54.536 164.029 53.96 164.882 53.32C165.522 52.8507 166.205 52.616 166.93 52.616C167.698 52.5733 168.359 52.7867 168.914 53.256C169.639 53.896 170.023 54.6 170.066 55.368C170.109 56.136 169.767 56.7973 169.042 57.352C167.591 58.504 165.778 59.4427 163.602 60.168C161.469 60.8933 159.421 61.256 157.458 61.256ZM183.896 39.112C183.896 36.552 184.515 34.2693 185.752 32.264C187.032 30.216 188.739 28.5947 190.872 27.4C193.005 26.2053 195.352 25.608 197.912 25.608C200.472 25.608 202.371 26.0347 203.608 26.888C204.888 27.6987 205.379 28.68 205.08 29.832C204.952 30.4293 204.696 30.8987 204.312 31.24C203.971 31.5387 203.565 31.7307 203.096 31.816C202.627 31.9013 202.115 31.88 201.56 31.752C198.829 31.1973 196.376 31.1547 194.2 31.624C192.024 32.0933 190.296 32.968 189.016 34.248C187.779 35.528 187.16 37.1493 187.16 39.112H183.896ZM183.96 61C182.936 61 182.147 60.744 181.592 60.232C181.037 59.6773 180.76 58.8667 180.76 57.8V29.192C180.76 28.168 181.037 27.3787 181.592 26.824C182.147 26.2693 182.936 25.992 183.96 25.992C185.027 25.992 185.816 26.2693 186.328 26.824C186.883 27.336 187.16 28.1253 187.16 29.192V57.8C187.16 58.824 186.883 59.6133 186.328 60.168C185.816 60.7227 185.027 61 183.96 61Z" fill="#34E5FF"/>
</g>
<g filter="url(#filter1_f_78_713)">
<path d="M34.8 61.64C31.344 61.64 28.1013 61 25.072 59.72C22.0853 58.3973 19.4613 56.584 17.2 54.28C14.9813 51.9333 13.232 49.2027 11.952 46.088C10.7147 42.9733 10.096 39.6027 10.096 35.976C10.096 32.392 10.7147 29.064 11.952 25.992C13.232 22.8773 14.9813 20.168 17.2 17.864C19.4613 15.5173 22.0853 13.6827 25.072 12.36C28.0587 11.0373 31.3013 10.376 34.8 10.376C38.0853 10.376 40.9013 10.8027 43.248 11.656C45.6373 12.5093 48.0267 13.9173 50.416 15.88C50.7573 16.136 51.0133 16.4133 51.184 16.712C51.3973 16.968 51.5253 17.2453 51.568 17.544C51.6533 17.8 51.696 18.12 51.696 18.504C51.696 19.3147 51.3973 19.9973 50.8 20.552C50.2453 21.064 49.5627 21.3627 48.752 21.448C47.9413 21.4907 47.152 21.2133 46.384 20.616C44.8053 19.2507 43.1627 18.2053 41.456 17.48C39.792 16.7547 37.5733 16.392 34.8 16.392C32.2827 16.392 29.9147 16.904 27.696 17.928C25.4773 18.952 23.5147 20.36 21.808 22.152C20.144 23.944 18.8427 26.0347 17.904 28.424C16.9653 30.7707 16.496 33.288 16.496 35.976C16.496 38.7067 16.9653 41.2667 17.904 43.656C18.8427 46.0027 20.144 48.072 21.808 49.864C23.5147 51.656 25.4773 53.064 27.696 54.088C29.9147 55.0693 32.2827 55.56 34.8 55.56C36.976 55.56 39.024 55.1973 40.944 54.472C42.9067 53.704 44.784 52.6587 46.576 51.336C47.344 50.7813 48.0907 50.5467 48.816 50.632C49.584 50.6747 50.224 50.9733 50.736 51.528C51.248 52.04 51.504 52.7653 51.504 53.704C51.504 54.1307 51.4187 54.5573 51.248 54.984C51.0773 55.368 50.8213 55.7307 50.48 56.072C48.176 57.9067 45.7013 59.2933 43.056 60.232C40.4533 61.1707 37.7013 61.64 34.8 61.64ZM67.782 76.36C67.3553 76.36 66.8433 76.232 66.246 75.976C64.3687 75.1227 63.8567 73.7787 64.71 71.944L84.23 27.848C85.0833 26.056 86.4273 25.544 88.262 26.312C90.182 27.1227 90.7153 28.4667 89.862 30.344L70.278 74.376C69.766 75.6987 68.934 76.36 67.782 76.36ZM75.334 59.592C74.5233 59.9333 73.7553 59.976 73.03 59.72C72.3473 59.4213 71.7927 58.8667 71.366 58.056L56.71 30.216C56.2833 29.4053 56.2193 28.6373 56.518 27.912C56.8593 27.144 57.4353 26.5893 58.246 26.248C59.0567 25.9067 59.8247 25.8853 60.55 26.184C61.2753 26.44 61.83 26.9733 62.214 27.784L76.23 55.624C76.6567 56.4347 76.806 57.224 76.678 57.992C76.5927 58.7173 76.1447 59.2507 75.334 59.592ZM113.61 61.256C110.282 61.256 107.295 60.488 104.65 58.952C102.005 57.3733 99.914 55.24 98.378 52.552C96.842 49.864 96.0527 46.8347 96.01 43.464V14.28C96.01 13.2987 96.3087 12.5093 96.906 11.912C97.546 11.3147 98.3353 11.016 99.274 11.016C100.255 11.016 101.045 11.3147 101.642 11.912C102.239 12.5093 102.538 13.2987 102.538 14.28V31.56C104.031 29.768 105.823 28.36 107.914 27.336C110.047 26.2693 112.373 25.736 114.89 25.736C118.005 25.736 120.799 26.5253 123.274 28.104C125.749 29.64 127.69 31.752 129.098 34.44C130.549 37.0853 131.274 40.0933 131.274 43.464C131.274 46.8347 130.485 49.864 128.906 52.552C127.37 55.24 125.279 57.3733 122.634 58.952C119.989 60.488 116.981 61.256 113.61 61.256ZM113.61 55.496C115.786 55.496 117.727 54.984 119.434 53.96C121.141 52.8933 122.485 51.4427 123.466 49.608C124.49 47.7733 125.002 45.7253 125.002 43.464C125.002 41.16 124.49 39.112 123.466 37.32C122.485 35.528 121.141 34.12 119.434 33.096C117.727 32.0293 115.786 31.496 113.61 31.496C111.477 31.496 109.535 32.0293 107.786 33.096C106.079 34.12 104.735 35.528 103.754 37.32C102.773 39.112 102.282 41.16 102.282 43.464C102.282 45.7253 102.773 47.7733 103.754 49.608C104.735 51.4427 106.079 52.8933 107.786 53.96C109.535 54.984 111.477 55.496 113.61 55.496ZM157.458 61.256C153.917 61.256 150.759 60.5093 147.986 59.016C145.255 57.48 143.101 55.3893 141.522 52.744C139.986 50.056 139.218 46.984 139.218 43.528C139.218 40.0293 139.943 36.9573 141.394 34.312C142.887 31.624 144.935 29.5333 147.538 28.04C150.141 26.504 153.127 25.736 156.498 25.736C159.826 25.736 162.685 26.4827 165.074 27.976C167.463 29.4267 169.277 31.4533 170.514 34.056C171.794 36.616 172.434 39.5813 172.434 42.952C172.434 43.7627 172.157 44.4453 171.602 45C171.047 45.512 170.343 45.768 169.49 45.768H143.698V40.648H169.298L166.674 42.44C166.631 40.3067 166.205 38.408 165.394 36.744C164.583 35.0373 163.431 33.6933 161.938 32.712C160.445 31.7307 158.631 31.24 156.498 31.24C154.066 31.24 151.975 31.7733 150.226 32.84C148.519 33.9067 147.218 35.3787 146.322 37.256C145.426 39.0907 144.978 41.1813 144.978 43.528C144.978 45.8747 145.511 47.9653 146.578 49.8C147.645 51.6347 149.117 53.0853 150.994 54.152C152.871 55.2187 155.026 55.752 157.458 55.752C158.781 55.752 160.125 55.5173 161.49 55.048C162.898 54.536 164.029 53.96 164.882 53.32C165.522 52.8507 166.205 52.616 166.93 52.616C167.698 52.5733 168.359 52.7867 168.914 53.256C169.639 53.896 170.023 54.6 170.066 55.368C170.109 56.136 169.767 56.7973 169.042 57.352C167.591 58.504 165.778 59.4427 163.602 60.168C161.469 60.8933 159.421 61.256 157.458 61.256ZM183.896 39.112C183.896 36.552 184.515 34.2693 185.752 32.264C187.032 30.216 188.739 28.5947 190.872 27.4C193.005 26.2053 195.352 25.608 197.912 25.608C200.472 25.608 202.371 26.0347 203.608 26.888C204.888 27.6987 205.379 28.68 205.08 29.832C204.952 30.4293 204.696 30.8987 204.312 31.24C203.971 31.5387 203.565 31.7307 203.096 31.816C202.627 31.9013 202.115 31.88 201.56 31.752C198.829 31.1973 196.376 31.1547 194.2 31.624C192.024 32.0933 190.296 32.968 189.016 34.248C187.779 35.528 187.16 37.1493 187.16 39.112H183.896ZM183.96 61C182.936 61 182.147 60.744 181.592 60.232C181.037 59.6773 180.76 58.8667 180.76 57.8V29.192C180.76 28.168 181.037 27.3787 181.592 26.824C182.147 26.2693 182.936 25.992 183.96 25.992C185.027 25.992 185.816 26.2693 186.328 26.824C186.883 27.336 187.16 28.1253 187.16 29.192V57.8C187.16 58.824 186.883 59.6133 186.328 60.168C185.816 60.7227 185.027 61 183.96 61Z" fill="#34E5FF"/>
</g>
<path d="M34.8 61.64C31.344 61.64 28.1013 61 25.072 59.72C22.0853 58.3973 19.4613 56.584 17.2 54.28C14.9813 51.9333 13.232 49.2027 11.952 46.088C10.7147 42.9733 10.096 39.6027 10.096 35.976C10.096 32.392 10.7147 29.064 11.952 25.992C13.232 22.8773 14.9813 20.168 17.2 17.864C19.4613 15.5173 22.0853 13.6827 25.072 12.36C28.0587 11.0373 31.3013 10.376 34.8 10.376C38.0853 10.376 40.9013 10.8027 43.248 11.656C45.6373 12.5093 48.0267 13.9173 50.416 15.88C50.7573 16.136 51.0133 16.4133 51.184 16.712C51.3973 16.968 51.5253 17.2453 51.568 17.544C51.6533 17.8 51.696 18.12 51.696 18.504C51.696 19.3147 51.3973 19.9973 50.8 20.552C50.2453 21.064 49.5627 21.3627 48.752 21.448C47.9413 21.4907 47.152 21.2133 46.384 20.616C44.8053 19.2507 43.1627 18.2053 41.456 17.48C39.792 16.7547 37.5733 16.392 34.8 16.392C32.2827 16.392 29.9147 16.904 27.696 17.928C25.4773 18.952 23.5147 20.36 21.808 22.152C20.144 23.944 18.8427 26.0347 17.904 28.424C16.9653 30.7707 16.496 33.288 16.496 35.976C16.496 38.7067 16.9653 41.2667 17.904 43.656C18.8427 46.0027 20.144 48.072 21.808 49.864C23.5147 51.656 25.4773 53.064 27.696 54.088C29.9147 55.0693 32.2827 55.56 34.8 55.56C36.976 55.56 39.024 55.1973 40.944 54.472C42.9067 53.704 44.784 52.6587 46.576 51.336C47.344 50.7813 48.0907 50.5467 48.816 50.632C49.584 50.6747 50.224 50.9733 50.736 51.528C51.248 52.04 51.504 52.7653 51.504 53.704C51.504 54.1307 51.4187 54.5573 51.248 54.984C51.0773 55.368 50.8213 55.7307 50.48 56.072C48.176 57.9067 45.7013 59.2933 43.056 60.232C40.4533 61.1707 37.7013 61.64 34.8 61.64ZM67.782 76.36C67.3553 76.36 66.8433 76.232 66.246 75.976C64.3687 75.1227 63.8567 73.7787 64.71 71.944L84.23 27.848C85.0833 26.056 86.4273 25.544 88.262 26.312C90.182 27.1227 90.7153 28.4667 89.862 30.344L70.278 74.376C69.766 75.6987 68.934 76.36 67.782 76.36ZM75.334 59.592C74.5233 59.9333 73.7553 59.976 73.03 59.72C72.3473 59.4213 71.7927 58.8667 71.366 58.056L56.71 30.216C56.2833 29.4053 56.2193 28.6373 56.518 27.912C56.8593 27.144 57.4353 26.5893 58.246 26.248C59.0567 25.9067 59.8247 25.8853 60.55 26.184C61.2753 26.44 61.83 26.9733 62.214 27.784L76.23 55.624C76.6567 56.4347 76.806 57.224 76.678 57.992C76.5927 58.7173 76.1447 59.2507 75.334 59.592ZM113.61 61.256C110.282 61.256 107.295 60.488 104.65 58.952C102.005 57.3733 99.914 55.24 98.378 52.552C96.842 49.864 96.0527 46.8347 96.01 43.464V14.28C96.01 13.2987 96.3087 12.5093 96.906 11.912C97.546 11.3147 98.3353 11.016 99.274 11.016C100.255 11.016 101.045 11.3147 101.642 11.912C102.239 12.5093 102.538 13.2987 102.538 14.28V31.56C104.031 29.768 105.823 28.36 107.914 27.336C110.047 26.2693 112.373 25.736 114.89 25.736C118.005 25.736 120.799 26.5253 123.274 28.104C125.749 29.64 127.69 31.752 129.098 34.44C130.549 37.0853 131.274 40.0933 131.274 43.464C131.274 46.8347 130.485 49.864 128.906 52.552C127.37 55.24 125.279 57.3733 122.634 58.952C119.989 60.488 116.981 61.256 113.61 61.256ZM113.61 55.496C115.786 55.496 117.727 54.984 119.434 53.96C121.141 52.8933 122.485 51.4427 123.466 49.608C124.49 47.7733 125.002 45.7253 125.002 43.464C125.002 41.16 124.49 39.112 123.466 37.32C122.485 35.528 121.141 34.12 119.434 33.096C117.727 32.0293 115.786 31.496 113.61 31.496C111.477 31.496 109.535 32.0293 107.786 33.096C106.079 34.12 104.735 35.528 103.754 37.32C102.773 39.112 102.282 41.16 102.282 43.464C102.282 45.7253 102.773 47.7733 103.754 49.608C104.735 51.4427 106.079 52.8933 107.786 53.96C109.535 54.984 111.477 55.496 113.61 55.496ZM157.458 61.256C153.917 61.256 150.759 60.5093 147.986 59.016C145.255 57.48 143.101 55.3893 141.522 52.744C139.986 50.056 139.218 46.984 139.218 43.528C139.218 40.0293 139.943 36.9573 141.394 34.312C142.887 31.624 144.935 29.5333 147.538 28.04C150.141 26.504 153.127 25.736 156.498 25.736C159.826 25.736 162.685 26.4827 165.074 27.976C167.463 29.4267 169.277 31.4533 170.514 34.056C171.794 36.616 172.434 39.5813 172.434 42.952C172.434 43.7627 172.157 44.4453 171.602 45C171.047 45.512 170.343 45.768 169.49 45.768H143.698V40.648H169.298L166.674 42.44C166.631 40.3067 166.205 38.408 165.394 36.744C164.583 35.0373 163.431 33.6933 161.938 32.712C160.445 31.7307 158.631 31.24 156.498 31.24C154.066 31.24 151.975 31.7733 150.226 32.84C148.519 33.9067 147.218 35.3787 146.322 37.256C145.426 39.0907 144.978 41.1813 144.978 43.528C144.978 45.8747 145.511 47.9653 146.578 49.8C147.645 51.6347 149.117 53.0853 150.994 54.152C152.871 55.2187 155.026 55.752 157.458 55.752C158.781 55.752 160.125 55.5173 161.49 55.048C162.898 54.536 164.029 53.96 164.882 53.32C165.522 52.8507 166.205 52.616 166.93 52.616C167.698 52.5733 168.359 52.7867 168.914 53.256C169.639 53.896 170.023 54.6 170.066 55.368C170.109 56.136 169.767 56.7973 169.042 57.352C167.591 58.504 165.778 59.4427 163.602 60.168C161.469 60.8933 159.421 61.256 157.458 61.256ZM183.896 39.112C183.896 36.552 184.515 34.2693 185.752 32.264C187.032 30.216 188.739 28.5947 190.872 27.4C193.005 26.2053 195.352 25.608 197.912 25.608C200.472 25.608 202.371 26.0347 203.608 26.888C204.888 27.6987 205.379 28.68 205.08 29.832C204.952 30.4293 204.696 30.8987 204.312 31.24C203.971 31.5387 203.565 31.7307 203.096 31.816C202.627 31.9013 202.115 31.88 201.56 31.752C198.829 31.1973 196.376 31.1547 194.2 31.624C192.024 32.0933 190.296 32.968 189.016 34.248C187.779 35.528 187.16 37.1493 187.16 39.112H183.896ZM183.96 61C182.936 61 182.147 60.744 181.592 60.232C181.037 59.6773 180.76 58.8667 180.76 57.8V29.192C180.76 28.168 181.037 27.3787 181.592 26.824C182.147 26.2693 182.936 25.992 183.96 25.992C185.027 25.992 185.816 26.2693 186.328 26.824C186.883 27.336 187.16 28.1253 187.16 29.192V57.8C187.16 58.824 186.883 59.6133 186.328 60.168C185.816 60.7227 185.027 61 183.96 61Z" fill="#FCF7F8"/>
<defs>
<filter id="filter0_f_78_713" x="0.0959473" y="0.375999" width="215.432" height="85.984" filterUnits="userSpaceOnUse" color-interpolation-filters="sRGB">
<feFlood flood-opacity="0" result="BackgroundImageFix"/>
<feBlend mode="normal" in="SourceGraphic" in2="BackgroundImageFix" result="shape"/>
<feGaussianBlur stdDeviation="5" result="effect1_foregroundBlur_78_713"/>
</filter>
<filter id="filter1_f_78_713" x="5.09595" y="5.376" width="205.432" height="75.984" filterUnits="userSpaceOnUse" color-interpolation-filters="sRGB">
<feFlood flood-opacity="0" result="BackgroundImageFix"/>
<feBlend mode="normal" in="SourceGraphic" in2="BackgroundImageFix" result="shape"/>
<feGaussianBlur stdDeviation="2.5" result="effect1_foregroundBlur_78_713"/>
</filter>
</defs>
</svg>
